<?xml version="1.0" standalone="no"?>
<!DOCTYPE svg PUBLIC "-//W3C//DTD SVG 20010904//EN"
 "http://www.w3.org/TR/2001/REC-SVG-20010904/DTD/svg10.dtd">
<svg version="1.0" xmlns="http://www.w3.org/2000/svg"
 width="81.000000pt" height="78.000000pt" viewBox="0 0 81.000000 78.000000"
 preserveAspectRatio="xMidYMid meet">

<g transform="translate(0.000000,78.000000) scale(0.100000,-0.100000)"
fill="#000000" stroke="none">
<path d="M320 754 c-67 -18 -129 -53 -176 -100 l-35 -35 31 -35 c16 -19 30
-41 30 -49 0 -8 4 -15 9 -15 17 0 36 -77 35 -142 -1 -40 2 -48 17 -48 11 0 19
-7 19 -15 0 -8 -9 -15 -20 -15 -13 0 -18 -5 -14 -15 4 -11 -1 -15 -17 -15 -35
0 -47 -11 -51 -45 -4 -41 -23 -38 -25 5 l-1 35 8 -35 7 -35 2 36 c0 20 8 42
16 49 11 9 12 16 5 25 -12 14 -3 25 22 25 10 0 18 5 18 10 0 6 -6 10 -14 10
-15 0 -56 45 -56 61 0 5 7 9 15 9 8 0 15 5 15 10 0 6 -9 10 -20 10 -11 0 -20
7 -20 15 0 8 5 15 12 15 6 0 4 6 -7 14 -12 8 -16 20 -12 35 3 11 1 21 -4 21
-5 0 -9 9 -9 20 0 33 -17 23 -35 -22 -23 -59 -31 -167 -15 -225 7 -26 26 -71
43 -100 27 -46 33 -51 51 -41 12 6 23 14 26 17 5 6 76 46 117 65 27 14 36 41
17 57 -8 7 -13 18 -10 24 2 7 -6 17 -20 23 -27 13 -34 34 -37 122 -2 63 -1 65
36 99 24 21 42 49 49 75 8 29 22 49 49 68 67 48 49 59 -51 32z m-70 -78 c0
-16 -18 -31 -27 -22 -8 8 5 36 17 36 5 0 10 -6 10 -14z m45 -16 c3 -5 -1 -10
-9 -10 -9 0 -16 5 -16 10 0 6 4 10 9 10 6 0 13 -4 16 -10z m-98 -32 c-2 -7
-10 -12 -16 -10 -6 1 -11 -5 -11 -15 0 -9 -3 -14 -6 -10 -10 10 7 47 23 47 8
0 13 -6 10 -12z m-97 -302 c0 -3 -4 -8 -10 -11 -5 -3 -10 -1 -10 4 0 6 5 11
10 11 6 0 10 -2 10 -4z m138 -73 c-10 -2 -28 -2 -40 0 -13 2 -5 4 17 4 22 1
32 -1 23 -4z"/>
<path d="M469 667 c3 -93 11 -111 42 -101 20 6 69 -15 69 -29 0 -46 -28 -151
-51 -193 -16 -28 -29 -55 -29 -61 0 -10 132 -93 172 -108 24 -10 74 83 89 165
13 73 3 143 -30 215 l-18 40 -8 -27 c-4 -16 -10 -28 -14 -28 -4 0 -6 -13 -3
-29 3 -22 0 -30 -15 -34 -16 -4 -16 -5 0 -6 26 -2 21 -20 -8 -27 -27 -7 -34
-24 -10 -24 25 0 17 -26 -15 -53 -35 -30 -37 -37 -11 -37 15 0 19 -7 19 -29
-1 -26 -4 -29 -37 -29 -33 0 -34 1 -16 14 18 13 17 14 -8 14 -17 0 -27 5 -27
15 0 8 8 15 19 15 15 0 19 10 24 53 6 61 38 152 71 200 l24 35 -42 40 c-40 40
-117 84 -166 95 l-25 6 4 -92z m48 1 c-3 -8 -6 -5 -6 6 -1 11 2 17 5 13 3 -3
4 -12 1 -19z m63 2 c0 -5 -4 -10 -10 -10 -5 0 -10 5 -10 10 0 6 5 10 10 10 6
0 10 -4 10 -10z m7 -37 c-8 -10 -16 -22 -15 -26 0 -5 -3 -11 -6 -14 -3 -4 -6
3 -6 13 0 21 18 44 34 44 5 0 2 -8 -7 -17z m53 -4 c0 -5 -5 -7 -11 -3 -8 4 -9
-1 -5 -17 6 -20 5 -21 -4 -6 -11 18 -6 37 11 37 5 0 9 -5 9 -11z"/>
<path d="M361 664 c0 -11 3 -14 6 -6 3 7 2 16 -1 19 -3 4 -6 -2 -5 -13z"/>
<path d="M352 608 c-6 -17 -10 -33 -8 -35 2 -2 21 3 42 12 38 16 38 17 17 28
-13 5 -23 14 -23 19 0 19 -17 5 -28 -24z"/>
<path d="M437 623 c-12 -12 -7 -43 7 -43 9 0 12 8 8 25 -5 27 -6 28 -15 18z"/>
<path d="M42 565 c-17 -37 -14 -45 4 -12 9 16 14 31 11 33 -2 2 -9 -7 -15 -21z"/>
<path d="M750 575 c0 -5 5 -17 10 -25 5 -8 10 -10 10 -5 0 6 -5 17 -10 25 -5
8 -10 11 -10 5z"/>
<path d="M21 504 c0 -11 3 -14 6 -6 3 7 2 16 -1 19 -3 4 -6 -2 -5 -13z"/>
<path d="M781 484 c0 -11 3 -14 6 -6 3 7 2 16 -1 19 -3 4 -6 -2 -5 -13z"/>
<path d="M12 460 c0 -14 2 -19 5 -12 2 6 2 18 0 25 -3 6 -5 1 -5 -13z"/>
<path d="M793 400 c0 -30 2 -43 4 -27 2 15 2 39 0 55 -2 15 -4 2 -4 -28z"/>
<path d="M491 384 c0 -11 3 -14 6 -6 3 7 2 16 -1 19 -3 4 -6 -2 -5 -13z"/>
<path d="M515 389 c-4 -6 -5 -12 -2 -15 2 -3 7 2 10 11 7 17 1 20 -8 4z"/>
<path d="M340 366 c0 -8 4 -17 9 -20 5 -4 7 3 4 14 -6 23 -13 26 -13 6z"/>
<path d="M463 365 c-3 -9 -3 -18 -1 -21 3 -3 8 4 11 16 6 23 -1 27 -10 5z"/>
<path d="M12 340 c0 -14 2 -19 5 -12 2 6 2 18 0 25 -3 6 -5 1 -5 -13z"/>
<path d="M323 325 c0 -8 4 -12 9 -9 4 3 8 9 8 15 0 5 -4 9 -8 9 -5 0 -9 -7 -9
-15z"/>
<path d="M767 271 c-31 -89 -83 -151 -183 -219 -10 -7 1 -3 24 10 24 12 62 42
84 66 40 43 103 162 96 182 -2 6 -11 -12 -21 -39z"/>
<path d="M30 265 c0 -5 5 -17 10 -25 5 -8 10 -10 10 -5 0 6 -5 17 -10 25 -5 8
-10 11 -10 5z"/>
<path d="M64 195 c25 -54 154 -165 190 -165 6 0 -11 13 -39 29 -46 26 -122 99
-153 147 -7 10 -6 6 2 -11z"/>
<path d="M505 25 c-22 -8 -31 -14 -20 -14 11 0 34 6 50 14 38 17 22 17 -30 0z"/>
<path d="M308 13 c6 -2 18 -2 25 0 6 3 1 5 -13 5 -14 0 -19 -2 -12 -5z"/>
<path d="M373 3 c15 -2 39 -2 55 0 15 2 2 4 -28 4 -30 0 -43 -2 -27 -4z"/>
</g>
</svg>
