<?xml version="1.0" standalone="no"?>
<!DOCTYPE svg PUBLIC "-//W3C//DTD SVG 20010904//EN"
 "http://www.w3.org/TR/2001/REC-SVG-20010904/DTD/svg10.dtd">
<svg version="1.0" xmlns="http://www.w3.org/2000/svg"
 width="90.000000pt" height="97.000000pt" viewBox="0 0 90.000000 97.000000"
 preserveAspectRatio="xMidYMid meet">
<metadata>
Created by potrace 1.16, written by Peter Selinger 2001-2019
</metadata>
<g transform="translate(0.000000,97.000000) scale(0.100000,-0.100000)"
fill="#000000" stroke="none">
<path d="M358 863 c-35 -5 -35 -18 -3 -39 14 -9 22 -21 18 -27 -3 -5 -1 -7 4
-4 6 4 17 -1 26 -11 30 -34 79 -134 74 -152 -3 -11 0 -21 5 -22 6 -2 12 -24
15 -49 l5 -45 52 9 c28 5 61 11 74 13 12 3 22 11 22 20 0 17 41 92 78 142 24
32 24 33 6 53 -81 90 -230 134 -376 112z"/>
<path d="M239 811 c-24 -15 -55 -40 -69 -55 -20 -23 -22 -30 -12 -44 7 -9 27
-38 44 -64 32 -49 45 -57 65 -37 8 8 13 5 18 -10 3 -11 23 -29 43 -38 32 -16
34 -18 15 -21 -13 -2 -23 -8 -23 -14 0 -7 -4 -7 -12 0 -10 8 -86 9 -136 1 -32
-5 -60 3 -58 17 0 9 -18 31 -41 51 -35 29 -41 31 -36 14 3 -12 9 -24 14 -27 5
-3 9 -38 9 -78 0 -112 17 -171 34 -118 4 10 21 35 39 56 28 31 42 38 97 47 66
11 140 5 173 -13 10 -5 26 -7 34 -3 14 5 12 10 -9 33 -14 15 -30 37 -37 48 -9
19 -7 23 10 27 25 7 16 27 -12 27 -12 0 -19 7 -19 20 0 14 5 18 18 14 10 -3 9
0 -4 7 -16 8 -23 24 -27 58 -8 67 -35 131 -56 131 -9 0 -37 -13 -62 -29z"/>
<path d="M799 575 c-54 -46 -80 -53 -41 -12 30 32 28 37 -13 37 -27 0 -42 -7
-60 -27 -31 -35 -31 -43 -2 -43 17 0 34 -16 65 -59 23 -33 38 -61 33 -63 -5
-2 -3 -18 5 -36 7 -18 18 -31 23 -28 16 10 34 117 28 172 -5 51 5 91 16 63 3
-8 6 -2 6 14 1 15 -1 27 -3 27 -2 0 -28 -20 -57 -45z"/>
<path d="M368 416 c-21 -15 -23 -61 -6 -98 14 -30 46 -38 114 -30 32 3 44 10
53 29 17 38 14 43 -31 45 l-43 1 45 8 c40 6 38 7 -22 5 -72 -2 -86 7 -60 37
14 16 13 17 -9 17 -13 0 -32 -7 -41 -14z"/>
<path d="M156 228 c90 -103 224 -152 354 -129 80 15 100 25 83 42 -15 15 -24
17 -113 29 -149 20 -180 29 -211 54 -24 21 -41 26 -81 26 l-51 0 19 -22z"/>
</g>
</svg>
