<?xml version="1.0" standalone="no"?>
<!DOCTYPE svg PUBLIC "-//W3C//DTD SVG 20010904//EN"
 "http://www.w3.org/TR/2001/REC-SVG-20010904/DTD/svg10.dtd">
<svg version="1.0" xmlns="http://www.w3.org/2000/svg"
 width="90.000000pt" height="85.000000pt" viewBox="0 0 90.000000 85.000000"
 preserveAspectRatio="xMidYMid meet">

<g transform="translate(0.000000,85.000000) scale(0.100000,-0.100000)"
fill="#000000" stroke="none">
<path d="M396 835 c-3 -9 -2 -13 3 -10 5 3 12 -3 14 -12 2 -10 3 -8 2 5 -2 23
9 30 18 12 3 -6 4 -5 3 2 -4 19 -33 21 -40 3z"/>
<path d="M451 814 c0 -11 3 -14 6 -6 3 7 2 16 -1 19 -3 4 -6 -2 -5 -13z"/>
<path d="M471 814 c0 -11 3 -14 6 -6 3 7 2 16 -1 19 -3 4 -6 -2 -5 -13z"/>
<path d="M490 816 c0 -8 4 -17 9 -20 5 -4 7 3 4 14 -6 23 -13 26 -13 6z"/>
<path d="M532 810 c0 -14 2 -19 5 -12 2 6 2 18 0 25 -3 6 -5 1 -5 -13z"/>
<path d="M561 804 c0 -11 3 -14 6 -6 3 7 2 16 -1 19 -3 4 -6 -2 -5 -13z"/>
<path d="M590 795 c0 -14 4 -25 9 -25 4 0 6 11 3 25 -2 14 -6 25 -8 25 -2 0
-4 -11 -4 -25z"/>
<path d="M661 779 c-7 -12 -10 -23 -8 -26 3 -3 11 5 17 17 15 28 8 35 -9 9z"/>
<path d="M686 765 c-3 -8 -1 -15 4 -15 6 0 10 7 10 15 0 8 -2 15 -4 15 -2 0
-6 -7 -10 -15z"/>
<path d="M455 729 c17 -19 32 -36 35 -39 3 -3 14 -23 24 -45 10 -22 22 -47 26
-55 5 -11 30 -17 86 -20 53 -4 88 -12 107 -24 55 -37 58 -86 6 -86 l-28 0 15
-42 c32 -90 -15 -231 -94 -285 -69 -46 -175 -52 -286 -16 l-49 16 34 14 c38
16 69 46 69 66 0 17 -105 24 -115 7 -11 -17 -44 -11 -91 16 -24 14 -44 21 -44
16 0 -13 66 -100 94 -125 38 -33 140 -76 196 -83 96 -11 234 38 295 106 10 11
25 20 34 20 25 0 -56 -75 -118 -109 -31 -17 -51 -31 -46 -31 23 0 113 61 151
101 25 28 47 43 58 41 15 -3 18 0 13 19 -3 12 -1 32 4 43 10 20 9 20 -5 2 -9
-11 -22 -16 -31 -12 -9 3 -26 1 -37 -5 -18 -10 -20 -9 -14 7 10 23 14 44 15
66 1 10 15 22 35 29 26 9 36 20 40 42 9 44 7 57 -7 57 -17 0 -59 -44 -50 -53
3 -4 2 -7 -4 -7 -6 0 -14 12 -18 27 -7 28 -1 36 53 73 20 14 21 19 11 54 -6
22 -26 53 -46 71 -32 29 -34 35 -23 55 9 17 9 21 0 15 -7 -4 -23 4 -38 18 -51
48 -130 80 -212 85 l-75 4 30 -33z m338 -536 c-7 -2 -19 -2 -25 0 -7 3 -2 5
12 5 14 0 19 -2 13 -5z"/>
<path d="M310 719 c-30 -16 -64 -39 -75 -49 -20 -19 -23 -19 -54 -4 -18 9 -35
13 -39 9 -9 -9 18 -24 34 -18 6 2 19 -6 28 -18 14 -21 13 -23 -18 -48 -41 -32
-74 -109 -51 -117 8 -4 12 -10 9 -15 -3 -5 2 -6 10 -3 10 4 16 1 16 -9 0 -8 7
-20 15 -27 13 -11 15 -7 15 24 0 30 5 38 26 46 15 6 22 15 18 21 -10 16 15 29
59 29 31 0 39 -4 47 -25 5 -14 16 -25 24 -25 17 0 26 -22 26 -67 0 -27 3 -34
15 -29 8 3 15 2 15 -2 0 -11 39 -12 45 -2 3 5 -4 15 -16 24 -14 9 -26 36 -35
73 -18 76 -18 84 4 77 11 -4 9 0 -7 14 -18 15 -23 26 -19 51 2 17 0 31 -4 31
-5 0 -9 15 -8 33 4 69 0 70 -80 26z m34 -70 c-3 -5 -10 -7 -15 -3 -5 3 -7 10
-3 15 3 5 10 7 15 3 5 -3 7 -10 3 -15z"/>
<path d="M703 725 c6 -7 15 -11 20 -8 13 8 7 19 -13 20 -16 1 -17 -1 -7 -12z"/>
<path d="M736 714 c-4 -9 -4 -19 -1 -22 2 -3 7 3 11 12 4 9 4 19 1 22 -2 3 -7
-3 -11 -12z"/>
<path d="M785 670 c-19 -8 -19 -9 3 -9 12 -1 22 4 22 9 0 6 -1 10 -2 9 -2 0
-12 -4 -23 -9z"/>
<path d="M160 629 c0 -5 5 -7 10 -4 6 3 10 8 10 11 0 2 -4 4 -10 4 -5 0 -10
-5 -10 -11z"/>
<path d="M775 630 c3 -5 8 -10 11 -10 2 0 4 5 4 10 0 6 -5 10 -11 10 -5 0 -7
-4 -4 -10z"/>
<path d="M110 558 c0 -19 2 -20 10 -8 13 19 13 30 0 30 -5 0 -10 -10 -10 -22z"/>
<path d="M820 576 c1 -1 10 -26 21 -56 13 -36 18 -43 13 -20 -4 19 -7 44 -8
56 -1 11 -7 21 -13 21 -7 0 -13 -1 -13 -1z"/>
<path d="M10 546 c0 -2 7 -7 16 -10 8 -3 12 -2 9 4 -6 10 -25 14 -25 6z"/>
<path d="M100 515 c0 -9 -6 -12 -17 -8 -19 6 -18 5 7 -14 13 -10 16 -8 18 13
1 13 0 24 -3 24 -3 0 -5 -7 -5 -15z"/>
<path d="M254 441 c5 -7 -1 -10 -16 -8 -15 1 -23 -4 -26 -17 -5 -23 23 -46 56
-46 21 0 23 4 20 37 -2 28 -8 39 -22 41 -11 3 -16 0 -12 -7z"/>
<path d="M317 443 c-3 -5 -8 -23 -12 -42 l-7 -34 32 7 c18 3 36 6 41 6 5 0 9
10 9 21 0 32 -50 64 -63 42z m33 -19 c0 -2 -7 -4 -15 -4 -8 0 -15 4 -15 10 0
5 7 7 15 4 8 -4 15 -8 15 -10z"/>
<path d="M863 395 c0 -27 2 -38 4 -22 2 15 2 37 0 50 -2 12 -4 0 -4 -28z"/>
<path d="M169 407 c11 -14 11 -17 1 -17 -20 0 -2 -14 19 -15 24 -2 18 16 -12
34 -20 13 -21 13 -8 -2z"/>
<path d="M441 354 c0 -11 3 -14 6 -6 3 7 2 16 -1 19 -3 4 -6 -2 -5 -13z"/>
<path d="M410 214 c0 -14 3 -14 15 -4 10 8 15 9 15 2 0 -6 7 -9 15 -6 21 9 8
24 -21 24 -15 0 -24 -6 -24 -16z"/>
<path d="M148 185 c32 -62 183 -166 237 -164 11 0 1 6 -22 14 -66 20 -127 60
-178 117 -27 29 -43 44 -37 33z"/>
<path d="M552 180 c0 -14 2 -19 5 -12 2 6 2 18 0 25 -3 6 -5 1 -5 -13z"/>
<path d="M568 23 c7 -3 16 -2 19 1 4 3 -2 6 -13 5 -11 0 -14 -3 -6 -6z"/>
<path d="M437 13 c18 -2 50 -2 70 0 21 2 7 4 -32 4 -38 0 -55 -2 -38 -4z"/>
</g>
</svg>
