<?xml version="1.0" standalone="no"?>
<!DOCTYPE svg PUBLIC "-//W3C//DTD SVG 20010904//EN"
 "http://www.w3.org/TR/2001/REC-SVG-20010904/DTD/svg10.dtd">
<svg version="1.0" xmlns="http://www.w3.org/2000/svg"
 width="89.000000pt" height="92.000000pt" viewBox="0 0 89.000000 92.000000"
 preserveAspectRatio="xMidYMid meet">

<g transform="translate(0.000000,92.000000) scale(0.100000,-0.100000)"
fill="#000000" stroke="none">
<path d="M572 888 c-7 -7 -12 -19 -12 -27 0 -14 2 -14 11 -1 9 12 10 11 6 -8
-3 -12 -1 -20 4 -17 6 4 9 65 4 65 -1 0 -6 -5 -13 -12z"/>
<path d="M606 854 c-10 -37 -2 -39 11 -4 6 17 8 30 3 30 -4 0 -11 -12 -14 -26z"/>
<path d="M636 835 c-9 -26 -7 -32 5 -12 6 10 9 21 6 23 -2 3 -7 -2 -11 -11z"/>
<path d="M303 807 c-81 -29 -160 -97 -201 -175 -31 -59 -41 -105 -23 -116 5
-3 12 1 15 10 10 25 26 6 26 -32 0 -36 8 -42 28 -22 9 9 14 4 23 -21 7 -20 16
-30 25 -27 7 3 16 1 19 -4 4 -6 22 -10 41 -10 29 0 34 -3 34 -25 0 -13 -7 -28
-16 -33 -11 -6 -13 -16 -9 -35 9 -33 19 -34 39 -5 16 22 16 22 16 -15 0 -34
-2 -37 -30 -37 -16 0 -30 -4 -30 -10 0 -5 14 -10 30 -10 27 0 30 -3 30 -30 0
-24 -6 -33 -27 -41 -55 -21 -59 -63 -8 -85 19 -7 38 -14 43 -14 5 0 10 35 11
77 1 43 3 79 5 80 2 2 33 -4 70 -12 37 -9 74 -14 84 -13 11 2 16 -4 17 -21 0
-29 8 -31 115 -21 72 6 77 7 30 9 -30 1 -72 4 -92 7 -34 6 -38 10 -38 35 0 23
5 29 21 29 11 0 29 5 40 11 19 10 20 11 3 23 -12 9 -14 15 -6 20 19 12 14 23
-13 30 -46 12 -92 70 -115 145 -17 57 -25 70 -45 75 -34 9 -33 43 0 56 30 11
33 20 5 13 -18 -5 -20 0 -20 41 0 42 2 46 25 46 16 0 25 -6 25 -15 0 -8 7 -15
15 -15 8 0 15 -4 15 -10 0 -5 -4 -10 -10 -10 -5 0 -8 -24 -7 -55 1 -30 5 -55
9 -55 3 0 18 -32 33 -71 25 -65 31 -73 71 -91 33 -14 44 -24 44 -41 0 -20 4
-22 35 -19 21 3 35 10 35 18 0 9 11 14 33 14 23 0 28 -3 17 -10 -12 -8 -12
-10 3 -16 11 -4 17 -17 17 -35 0 -57 52 -20 55 38 0 17 -4 22 -16 18 -14 -5
-17 7 -22 82 -4 58 -3 91 5 98 7 7 12 6 15 -2 3 -7 9 -13 15 -13 28 0 -28 129
-85 195 -41 47 -53 42 -92 -41 -16 -33 -32 -54 -43 -55 -10 0 -12 -3 -4 -6 20
-8 14 -30 -16 -52 -36 -25 -59 -14 -42 20 11 24 11 24 -9 -1 -15 -18 -21 -21
-21 -9 0 45 68 128 135 165 19 10 35 22 35 25 0 13 -64 47 -119 63 -77 23
-173 20 -248 -7z m225 -27 c12 -12 22 -23 22 -25 0 -3 -28 -5 -62 -5 -60 0
-61 0 -43 20 10 11 21 17 26 15 4 -3 10 -1 14 5 9 15 19 12 43 -10z m-248 -30
c0 -5 -4 -10 -10 -10 -5 0 -10 5 -10 10 0 6 5 10 10 10 6 0 10 -4 10 -10z m30
0 c0 -5 -5 -10 -11 -10 -5 0 -7 5 -4 10 3 6 8 10 11 10 2 0 4 -4 4 -10z m40 0
c0 -5 -4 -10 -10 -10 -5 0 -10 5 -10 10 0 6 5 10 10 10 6 0 10 -4 10 -10z
m-128 -72 c23 6 44 10 45 8 2 -1 6 -30 9 -64 6 -53 5 -62 -10 -62 -9 0 -16 5
-16 12 0 6 -2 9 -4 7 -5 -5 7 -63 19 -91 6 -15 2 -18 -24 -18 -17 0 -32 3 -32
8 -1 4 -3 16 -4 27 -1 11 -9 34 -17 50 -9 17 -19 46 -23 65 -3 19 -9 44 -12
55 -5 17 -4 18 11 6 12 -11 25 -11 58 -3z m513 -58 c4 -6 -11 -10 -36 -10 -41
0 -42 0 -24 20 18 19 45 15 60 -10z m-74 -67 c0 -15 2 -15 9 2 8 19 9 19 9 1
1 -16 3 -16 17 -6 13 12 14 10 3 -13 -7 -15 -16 -24 -22 -20 -6 3 -7 1 -3 -5
6 -11 -12 -62 -23 -62 -3 0 -15 7 -26 16 -16 12 -18 18 -7 34 6 10 9 27 5 36
-5 14 -3 16 11 11 14 -5 17 -3 12 8 -3 8 -1 15 4 15 6 0 10 -8 11 -17z m78
-106 c-13 -13 -49 -12 -49 2 0 11 45 28 54 20 4 -4 2 -14 -5 -22z m-9 -51 c0
-23 -22 -41 -34 -29 -3 4 -6 17 -6 30 0 16 6 23 20 23 14 0 20 -7 20 -24z"/>
<path d="M201 594 c0 -11 3 -14 6 -6 3 7 2 16 -1 19 -3 4 -6 -2 -5 -13z"/>
<path d="M654 819 c-3 -6 -2 -15 4 -21 14 -14 32 -1 31 20 -1 15 -2 15 -6 0
-2 -10 -9 -18 -15 -18 -5 0 -8 7 -4 15 6 17 0 20 -10 4z"/>
<path d="M710 790 c-14 -11 -20 -20 -14 -20 14 0 50 27 44 33 -3 3 -16 -3 -30
-13z"/>
<path d="M738 774 c-16 -8 -28 -17 -28 -19 0 -11 19 -4 41 15 29 23 24 25 -13
4z"/>
<path d="M425 680 c3 -5 8 -10 11 -10 2 0 4 5 4 10 0 6 -5 10 -11 10 -5 0 -7
-4 -4 -10z"/>
<path d="M51 484 c0 -11 3 -14 6 -6 3 7 2 16 -1 19 -3 4 -6 -2 -5 -13z"/>
<path d="M50 426 c0 -9 7 -19 15 -23 25 -9 27 2 5 22 -18 17 -20 17 -20 1z"/>
<path d="M808 413 c-24 -6 -23 -23 2 -23 11 0 20 7 20 15 0 8 -1 14 -2 14 -2
-1 -11 -3 -20 -6z"/>
<path d="M90 343 c0 -4 8 -17 16 -28 15 -20 16 -20 12 4 -3 22 -28 44 -28 24z"/>
<path d="M80 291 c0 -5 7 -12 16 -15 14 -5 15 -4 4 9 -14 17 -20 19 -20 6z"/>
<path d="M520 125 c0 -8 4 -15 10 -15 5 0 7 7 4 15 -4 8 -8 15 -10 15 -2 0 -4
-7 -4 -15z"/>
<path d="M528 35 c6 -32 12 -32 12 0 0 14 -4 25 -9 25 -4 0 -6 -11 -3 -25z"/>
</g>
</svg>
