<?xml version="1.0" standalone="no"?>
<!DOCTYPE svg PUBLIC "-//W3C//DTD SVG 20010904//EN"
 "http://www.w3.org/TR/2001/REC-SVG-20010904/DTD/svg10.dtd">
<svg version="1.0" xmlns="http://www.w3.org/2000/svg"
 width="196.000000pt" height="172.000000pt" viewBox="0 0 196.000000 172.000000"
 preserveAspectRatio="xMidYMid meet">

<g transform="translate(0.000000,172.000000) scale(0.100000,-0.100000)"
fill="#000000" stroke="none">
<path d="M715 1696 c-76 -33 -123 -120 -106 -196 10 -43 56 -119 78 -127 7 -3
31 11 52 30 21 19 48 38 60 42 28 9 60 -11 75 -46 l12 -30 27 22 c57 44 77
141 44 205 -47 90 -159 136 -242 100z"/>
<path d="M415 1429 c-89 -99 -87 -189 6 -301 l42 -49 -39 -40 c-21 -23 -51
-49 -66 -60 l-27 -20 -16 30 c-8 17 -15 41 -15 54 0 27 38 67 63 67 26 0 20
19 -15 52 -74 69 -159 64 -246 -16 -37 -33 -72 -110 -72 -158 0 -49 34 -126
78 -178 l30 -34 -65 -60 -64 -59 33 -34 c66 -69 147 -94 218 -68 25 9 50 17
57 18 6 1 49 -39 95 -89 46 -50 163 -177 262 -283 l179 -192 29 28 c34 32 73
96 82 134 5 22 13 28 50 33 57 9 85 30 295 225 96 89 177 160 180 159 4 -2 67
-67 140 -146 l134 -143 34 33 c51 49 77 104 76 163 0 67 -18 98 -112 197 l-79
84 134 123 c74 69 134 129 134 134 0 15 -59 66 -102 88 -23 12 -58 19 -91 19
-63 0 -98 -20 -189 -106 -31 -30 -60 -54 -65 -54 -8 0 -46 38 -102 102 l-23
26 52 41 c76 60 131 54 158 -18 l8 -24 37 32 c88 78 67 197 -50 282 -37 26
-59 34 -104 37 -74 5 -122 -17 -214 -98 l-67 -59 -77 81 -77 81 -25 -24 c-36
-35 -64 -78 -79 -122 -15 -48 0 -117 36 -164 13 -17 24 -34 24 -37 0 -2 -25
-26 -55 -52 l-56 -47 -24 23 c-22 20 -23 26 -11 39 67 77 59 187 -21 280 l-28
33 -72 -66 -71 -66 -97 105 c-53 58 -101 105 -105 105 -4 0 -24 -18 -45 -41z
m868 -613 l21 -29 -55 -48 -54 -48 -57 56 c-32 32 -58 63 -58 69 0 7 23 33 52
59 l51 46 39 -38 c22 -21 49 -51 61 -67z m-610 38 l19 -25 -64 -59 -63 -58
-25 25 -25 25 65 59 c35 32 67 59 70 59 3 0 13 -12 23 -26z m318 -349 c0 -3
-28 -31 -62 -63 l-62 -57 -63 70 c-35 38 -64 72 -64 75 0 3 15 14 34 24 19 10
49 34 67 53 l34 34 58 -65 c32 -36 58 -68 58 -71z"/>
</g>
</svg>
